<svg width="470" height="529" viewBox="0 0 470 529" fill="none" xmlns="http://www.w3.org/2000/svg">
<path d="M435.852 89.0732C436.338 135.302 407.748 174.636 362.652 185.013C358.082 186.065 353.425 187.711 348.791 188.775C345.089 189.536 341.096 190.143 337.31 190.116C336.649 201.507 335.929 210.033 333.204 221.203C325.397 253.211 305.808 283.333 281.634 305.435C281.961 307.985 282.562 311.69 282.56 314.171C287.248 338.491 281.01 361.984 257.946 374.573C253.78 376.847 239.925 382.187 235.457 381.803C217.231 380.241 198.437 368.779 190.369 352C184.842 340.661 183.025 324.662 186.643 313.556C186.74 310.994 187.322 307.072 187.648 304.431C182.964 298.63 176.242 293.109 171.183 286.661C148.582 257.859 134.072 226.819 133.842 189.775L122.688 188.164C100.015 182.883 81.7697 178.883 64.2667 162.267C57.6507 155.987 53.7806 151.944 48.8406 144.034C38.7136 127.678 33.5096 108.752 33.8496 89.5182C49.8116 108.89 69.4186 121.079 94.7386 124.672C99.2006 125.305 104.264 124.658 108.778 125.132C126.108 126.862 137.255 137.607 145.921 151.74C166.753 133.414 187.594 122.956 216.328 124.168C222.299 124.42 230.109 126.89 235.079 126.967C239.935 127.043 247.519 124.337 253.374 124.192C281.774 123.492 302.519 133.662 323.544 151.512C332.996 138.241 341.939 128.443 358.979 125.581C365.56 124.475 373.054 124.971 379.608 123.862C401.528 120.15 422.594 106.768 435.852 89.0732Z" fill="#202328"/>
<path d="M435.852 89.0732C436.338 135.302 407.748 174.636 362.652 185.013C358.082 186.065 353.425 187.711 348.791 188.775C341.125 182.462 331.823 178.455 321.969 177.22C305.499 175.1 289.723 180.204 276.911 190.502C251.83 210.661 245.152 233.547 241.35 263.664L226.037 263.488C225.584 261.293 225.349 258.878 225.061 256.645C221.933 232.308 213.188 207.672 193.299 192.037C183.226 184.117 171.886 178.133 158.841 176.992C146.004 175.869 132.573 179.751 122.688 188.164C100.015 182.883 81.7697 178.883 64.2667 162.267C57.6507 155.987 53.7806 151.944 48.8406 144.034C38.7136 127.678 33.5096 108.752 33.8496 89.5182C49.8116 108.89 69.4186 121.079 94.7386 124.672C99.2006 125.305 104.264 124.658 108.778 125.132C126.108 126.862 137.255 137.607 145.921 151.74C166.753 133.414 187.594 122.956 216.328 124.168C222.299 124.42 230.109 126.89 235.079 126.967C239.935 127.043 247.519 124.337 253.374 124.192C281.774 123.492 302.519 133.662 323.544 151.512C332.996 138.241 341.939 128.443 358.979 125.581C365.56 124.475 373.054 124.971 379.608 123.862C401.528 120.15 422.594 106.768 435.852 89.0732Z" fill="#FC6323"/>
<path d="M324.487 191.329C327.933 190.714 333.67 190.415 337.31 190.116C336.649 201.507 335.929 210.033 333.204 221.203C325.397 253.211 305.808 283.333 281.634 305.435C281.961 307.985 282.562 311.69 282.56 314.171C274.985 305.262 268.605 286.041 265.794 274.746C261.712 258.345 267.094 230.881 276.117 216.859C277.377 215.051 278.523 213.055 279.949 211.364C290.995 198.265 307.977 192.96 324.487 191.329Z" fill="#FC6323"/>
<path d="M276.117 216.859C277.377 215.051 278.523 213.055 279.949 211.364C290.995 198.265 307.977 192.96 324.487 191.329C324.461 194.385 324.465 196.537 323.828 199.57C319.973 217.939 299.782 226.906 282.928 220.179C280.478 219.201 278.46 218.037 276.117 216.859Z" fill="#FCFCFC"/>
<path d="M133.842 189.775C137.815 190.117 141.63 190.424 145.586 190.99C164.309 193.643 183.478 199.496 194.638 216.096C204.995 231.722 207.298 254.819 203.404 272.835C201.003 283.945 194.399 305.344 186.643 313.556C186.74 310.994 187.322 307.072 187.648 304.431C182.964 298.63 176.242 293.109 171.183 286.661C148.582 257.859 134.072 226.819 133.842 189.775Z" fill="#FC6323"/>
<path d="M145.586 190.99C164.309 193.643 183.478 199.496 194.638 216.096C189.338 219.816 183.75 222.433 177.136 222.601C168.642 222.818 160.431 219.543 154.418 213.54C146.785 206.007 145.609 201.228 145.586 190.99Z" fill="#FCFCFC"/>
<path d="M195.132 326.309C197.883 326.506 200.401 326.533 203.14 326.963C217.286 329.184 232.802 337.598 227.528 354.521L227.004 356.161C226.591 356.566 226.302 357.191 225.662 356.942C225.532 356.673 225.291 355.711 225.199 355.386C222.889 347.224 212.303 343.427 205.386 339.976C198.686 336.632 197.216 333.019 195.132 326.309Z" fill="#FCFCFC"/>
<path d="M274.329 326.786C275.522 326.636 277.882 326.043 277.297 327.793C275.863 332.059 275.064 334.807 271.261 337.418C262.536 343.407 249.92 345.068 247.488 356.917C242.464 355.578 244.534 342.793 247.419 339.07C254.532 329.89 263.639 327.857 274.329 326.786Z" fill="#FCFCFC"/>
<path d="M304.549 313.169C321.128 294.403 327.617 277.76 337.324 255.384C342.058 263.97 346.384 273.052 351.122 281.659C373.613 322.521 394.93 364.377 417.429 405.193C423.145 415.853 428.804 426.544 434.406 437.264C411.2 437.597 387.123 437.103 363.817 437.125L208.665 437.254L100.995 437.245C78.9639 437.451 56.9309 437.437 34.8999 437.201C39.7169 426.289 49.2649 409.604 55.0279 399.032L81.9179 348.649L114.711 287.41C119.425 278.697 126.998 263.791 132.137 255.953C132.741 256.694 137.052 267.308 137.768 269.11C144.558 286.189 152.695 299.166 163.945 313.65C163.542 338.514 166.212 351.858 175.797 374.42C197.797 385.882 210.215 394.543 234.588 404.07C253.135 397.035 276.163 384.981 292.859 374.2C302.655 351.164 304.353 337.499 304.549 313.169Z" fill="#202328"/>
<path d="M109.325 361.292C122.483 361.043 138.049 360.914 151.131 361.372C147.81 370.309 144.393 379.21 140.878 388.072C139.016 392.777 137.061 397.931 134.795 402.45C134.489 403.062 134.507 402.83 133.511 403.115L90.9429 403.183C97.1519 389.509 102.656 374.67 109.325 361.292Z" fill="#FC6323"/>
<path d="M319.418 361.225C332.311 360.976 347.663 361.052 360.533 361.478C366.682 372.997 373.545 390.65 379.264 403.115C364.759 403.186 350.254 403.179 335.749 403.096C330.66 389.058 324.396 375.2 319.418 361.225Z" fill="#FC6323"/>
<path d="M22.0359 458.078C47.9559 458.619 74.3239 458.017 100.32 458.197L447.42 458.506C449.093 461.365 450.668 464.152 452.316 467.192C461.689 484.478 477.112 503.896 457.565 521.172C454.295 524.061 451.257 525.263 447.267 526.765C438.35 528.971 405.539 527.801 393.974 527.763L292.98 527.632L112.576 527.67C85.0269 527.702 57.3799 528.073 29.8389 527.916C25.3689 527.89 21.0099 527.03 17.0229 524.905C10.9029 521.629 6.34289 516.046 4.35389 509.395C0.438895 496.125 6.46491 486.812 12.4809 475.696L22.0359 458.078Z" fill="#FC6323"/>
<path d="M55.523 5.36947C84.251 -4.82653 118.884 0.386472 145.696 13.5385C184.303 32.4775 209.847 65.0555 224.159 104.792C197.406 100.645 174.702 106.937 153.044 122.761L152.081 123.471C151.42 117.949 150.242 108.327 148.221 103.196C145.991 98.0335 143.438 93.0155 140.577 88.1735C113.684 42.2025 60.099 21.8384 11.615 46.7764C7.67599 48.8024 3.822 51.1475 0 53.3905C11.442 30.4535 32.488 15.2235 55.523 5.36947Z" fill="#FC6323"/>
<path d="M55.523 5.36914C85.793 10.5201 109.026 25.2411 126.828 50.3061C130.34 55.1551 133.473 60.2681 136.198 65.5991C139.24 71.6791 148.696 96.8701 148.221 103.196C145.991 98.0331 143.438 93.0151 140.577 88.1731C113.684 42.2021 60.099 21.8381 11.615 46.7761C7.67599 48.8021 3.822 51.1471 0 53.3901C11.442 30.4531 32.488 15.2231 55.523 5.36914Z" fill="#202328"/>
<path d="M247.368 105.242C248.018 101.302 249.115 97.4977 250.447 93.7437C263.214 57.7327 289.884 30.1767 324.125 13.9947C349.252 2.12074 385.256 -4.76027 412.024 4.73173C436.119 13.4767 457.351 30.1247 469.317 53.0677C419.947 20.7147 361.88 35.8887 330.39 84.9187C327.806 88.9427 325.496 92.9927 323.133 97.1477C320.811 105.509 319.885 114.979 316.088 122.184C294.339 106.985 274.047 101.563 247.368 105.242Z" fill="#202328"/>
<path d="M412.024 4.73242C436.119 13.4774 457.351 30.1254 469.317 53.0684C419.947 20.7154 361.88 35.8894 330.39 84.9194C327.806 88.9434 325.496 92.9934 323.133 97.1484C323.296 93.8594 324.698 90.2934 325.805 87.1934C337.854 53.4594 360.581 21.0074 395.396 8.37444C400.628 6.47544 406.527 5.66842 412.024 4.73242Z" fill="#FC6323"/>
</svg>
