<svg width="672" height="604" viewBox="0 0 672 604" fill="none" xmlns="http://www.w3.org/2000/svg">
<path d="M236.909 213.014C237.225 214.018 214.257 288.536 211.967 295.587C245.096 336.645 302.446 352.112 353.337 347.504C395.845 343.654 431.614 328.056 459.475 295.146L442.477 239.569C440.21 231.96 436.364 220.464 435 213.112C439.28 216.681 444.362 220.269 448.831 223.827L495.013 260.424C510.662 273.025 520.479 278.51 528.201 297.818C541.077 334.11 518.695 375.744 479.279 381.246C465.82 383.125 447.72 381.983 433.808 382.024L338.354 382.008L243.193 382.089C229.61 382.102 215.292 382.008 201.849 381.992C141.346 381.033 116.617 304.641 166.457 268.688C189.658 251.951 213.273 230.215 236.909 213.014Z" fill="#E31919"/>
<path d="M403.113 438.197C424.51 437.963 447.769 435.514 468.421 444.299C490.148 453.543 499.889 477.455 490.459 499.43C485.865 510.136 476.712 515.178 465.853 519.028C474.267 521.424 480.275 524.157 486.593 530.229C500.39 543.49 500.133 569.222 486.258 582.373C477.017 591.15 462.776 597.667 450.214 599.872C435.502 602.455 417.977 601.502 402.886 601.461L336.613 601.463L336.719 576.192C337.049 541.032 337.12 505.871 336.932 470.71C348.721 484.67 360.307 485.533 377.471 487.068L377.641 500.444L410.645 500.392C421.046 500.388 432.587 500.932 442.708 498.438C446.339 497.647 453.758 492.773 452.928 488.182C450.843 476.651 431.741 477.857 424.276 477.797C412.53 477.738 400.784 477.753 389.037 477.844C381.595 477.877 368.639 478.287 361.73 476.658C355.844 475.252 350.444 472.289 346.097 468.079C337.881 459.984 336.749 449.195 336.471 438.346L403.113 438.197Z" fill="#E31919"/>
<path d="M377.33 535.272L416.468 535.326C425.118 535.341 454.459 532.993 453.55 547.421C452.641 561.858 435.214 560.614 424.646 560.607L398.464 560.576C395.453 560.574 387.116 560.37 384.95 561.52C379.062 564.646 369.728 572.522 364.536 576.936L363.35 576.331C367.449 572.22 373.666 565.923 377.09 561.276C377.181 552.659 377.365 543.875 377.33 535.272Z" fill="black"/>
<path d="M363.349 576.331L364.535 576.936C362.5 578.579 361.165 579.514 359.028 581.013C360.793 578.72 361.196 578.303 363.349 576.331Z" fill="#FED3D4"/>
<path d="M0 437.981L51.305 438.204C61.668 438.243 72.122 438.172 82.5 438.498C127.131 439.896 165.437 467.735 165.066 515.375C164.738 557.377 142.99 589.024 100.994 598.468C83.29 602.449 67.443 601.449 49.47 601.455L1.48799 601.453C2.10699 569.59 1.102 536.918 1.457 504.973C1.518 499.442 1.005 473.086 1.996 468.704C2.742 470.009 2.976 470.382 3.524 471.823C12.798 486.661 27.323 487.639 43.492 488.53C43.735 497.917 45.026 549.144 43.287 554.896C41.225 561.72 36.334 567.645 33.515 574.201C33.441 574.372 33.371 574.544 33.299 574.716C38.375 570.244 45.615 562.666 50.889 559.139C62.254 559.079 74.526 559.586 85.54 558.707C132.624 554.949 134.948 483.296 86.911 478.465C79.839 477.754 73.648 477.882 66.724 477.904L40.637 477.994C35.626 478.01 28.253 478.289 23.54 477.296C19.321 476.421 15.39 474.495 12.112 471.698C2.005 463.037 0.963 450.255 0 437.981Z" fill="#E31919"/>
<path d="M553.429 438.535C569.829 438.634 586.23 438.604 602.63 438.446L641.611 530.764C651.272 554.383 661.253 577.87 671.552 601.219C656.262 601.902 637.235 601.437 621.631 601.464L610.973 575.54L602.243 575.567L539.688 575.425C536.091 584.035 532.635 592.703 529.323 601.425L483.551 601.362C492.615 582.58 501.202 561.632 509.388 542.422L536.495 479.208C542.048 465.999 547.291 451.365 553.429 438.535Z" fill="#E31919"/>
<path d="M577.144 483.822C577.913 485.109 578.827 487.773 579.429 489.252C585.98 505.328 593.625 520.895 600.48 536.847C589.473 536.237 577.879 536.451 566.813 536.464L556.107 546.611C552.13 550.452 547.037 554.799 542.86 558.549C546.134 552.348 551.148 546.836 554.076 541.106C557.092 535.203 560.416 526.533 562.979 520.151C567.554 508.758 574.088 495.538 577.144 483.822Z" fill="black"/>
<path d="M284.507 438.022L326.489 438.128L326.467 478.692L326.531 513.146C326.559 529.902 327.759 547.972 321.176 563.689C297.554 620.085 197.908 615.574 175.879 560.775C173.37 554.523 171.829 547.924 171.31 541.208C170.75 534.581 170.635 440.257 171.497 438.205C185.406 437.896 200.246 438.128 214.249 438.032L214.071 501.863C214.026 511.155 213.916 520.501 214.03 529.76C214.13 537.864 216.442 547.091 222.198 553.036C228.525 559.571 237.595 562.945 246.601 563.066C289.536 563.642 284.437 533.227 284.449 502.747L284.507 438.022Z" fill="#E31919"/>
<path d="M265.411 125.637C268.379 126.973 273.259 130.151 276.827 131.869C284.216 135.423 292.422 138.621 300.387 140.692C338.956 150.722 372.455 144.884 406.732 125.55C409.761 136.981 412.319 149.319 415.196 160.881C417.318 169.411 420.231 180.113 421.864 188.597C416.494 194.155 413 197.136 406.781 201.735C391.271 212.219 367.855 219.51 349.226 220.345C308.824 222.156 279.656 216.53 249.158 189.408C250.09 184.464 252.847 175.249 254.193 169.959L265.411 125.637Z" fill="#E31919"/>
<path d="M431.199 254.903C432.645 257.681 440.757 286.978 442.231 291.947C396.955 343.62 293.734 345.862 241.515 303.598C237.324 300.086 233.461 296.2 229.543 292.383C232.993 279.91 236.669 267.502 240.572 255.163C264.562 270.662 282.15 279.523 311.144 283.273C353.82 288.794 396.496 281.255 431.199 254.903Z" fill="#E31919"/>
<path d="M326.955 0.628605C344.015 -1.85239 364.117 3.1986 378.574 12.4656C383.24 28.5596 387.193 49.3316 391.56 66.2806C376.017 75.5886 362.388 78.8836 344.616 80.2366C323.34 82.4456 298.528 76.7046 279.986 66.0016C281.675 57.9506 284.622 47.9626 286.678 39.8226C288.749 31.6266 291.481 20.2976 294.208 12.5616C303.299 5.6636 315.765 2.03161 326.955 0.628605Z" fill="#E31919"/>
</svg>
