<svg width="393" height="383" viewBox="0 0 393 383" fill="none" xmlns="http://www.w3.org/2000/svg">
<path d="M97.114 213.014C97.43 214.018 74.462 288.536 72.172 295.587C105.301 336.645 162.651 352.112 213.542 347.504C256.05 343.654 291.819 328.056 319.68 295.146L302.682 239.569C300.415 231.96 296.569 220.464 295.205 213.112C299.485 216.681 304.567 220.269 309.036 223.827L355.218 260.424C370.867 273.025 380.684 278.51 388.406 297.818C401.282 334.11 378.9 375.744 339.484 381.246C326.025 383.125 307.925 381.983 294.013 382.024L198.559 382.008L103.398 382.089C89.815 382.102 75.497 382.008 62.054 381.992C1.55101 381.033 -23.178 304.641 26.662 268.688C49.863 251.951 73.478 230.215 97.114 213.014Z" fill="#E31919"/>
<path d="M125.616 125.637C128.584 126.973 133.464 130.151 137.032 131.869C144.421 135.423 152.627 138.621 160.592 140.692C199.161 150.722 232.66 144.884 266.937 125.55C269.966 136.981 272.524 149.319 275.401 160.881C277.523 169.411 280.436 180.113 282.069 188.597C276.699 194.155 273.205 197.136 266.986 201.735C251.476 212.219 228.06 219.51 209.431 220.345C169.029 222.156 139.861 216.53 109.363 189.408C110.295 184.464 113.052 175.249 114.398 169.959L125.616 125.637Z" fill="#E31919"/>
<path d="M291.404 254.903C292.85 257.681 300.962 286.978 302.436 291.947C257.16 343.62 153.939 345.862 101.72 303.598C97.5291 300.086 93.666 296.2 89.748 292.383C93.198 279.91 96.8741 267.502 100.777 255.163C124.767 270.662 142.355 279.523 171.349 283.273C214.025 288.794 256.701 281.255 291.404 254.903Z" fill="#E31919"/>
<path d="M187.16 0.628605C204.22 -1.85239 224.322 3.1986 238.779 12.4656C243.445 28.5596 247.398 49.3316 251.765 66.2806C236.222 75.5886 222.593 78.8836 204.821 80.2366C183.545 82.4456 158.733 76.7046 140.191 66.0016C141.88 57.9506 144.827 47.9626 146.883 39.8226C148.954 31.6266 151.686 20.2976 154.413 12.5616C163.504 5.6636 175.97 2.03161 187.16 0.628605Z" fill="#E31919"/>
</svg>
